<?xml version="1.0" encoding="iso-8859-1"?>
<!-- Generator: Adobe Illustrator 17.1.0, SVG Export Plug-In . SVG Version: 6.00 Build 0)  -->
<!DOCTYPE svg PUBLIC "-//W3C//DTD SVG 1.1//EN" "http://www.w3.org/Graphics/SVG/1.1/DTD/svg11.dtd">
<svg version="1.1" id="Capa_1" xmlns="http://www.w3.org/2000/svg" xmlns:xlink="http://www.w3.org/1999/xlink" x="0px" y="0px"
	 viewBox="0 0 490 490" style="enable-background:new 0 0 490 490;" xml:space="preserve">
<g>
	<path d="M291.565,159.573h-8.305V17.474C283.261,7.841,275.423,0,265.788,0h-41.792c-9.632,0-17.472,7.841-17.472,17.474v142.099
		h-8.302c-1.36,0-2.465,1.105-2.465,2.462v291.521c0,1.37,1.105,2.473,2.465,2.473h93.342c1.357,0,2.461-1.103,2.461-2.473V162.035
		C294.026,160.678,292.923,159.573,291.565,159.573z M221.308,17.474c0-1.484,1.208-2.691,2.689-2.691h41.792
		c1.482,0,2.689,1.207,2.689,2.691v142.099h-47.17V17.474z M271.78,236.406c0,0.813-0.664,1.479-1.478,1.479h-50.814
		c-0.813,0-1.48-0.666-1.48-1.479v-19.223c0-0.814,0.667-1.473,1.48-1.473h50.814c0.814,0,1.478,0.658,1.478,1.473V236.406z"/>
	<path d="M311.519,486.061c0,2.176-1.764,3.939-3.939,3.939h-9.611c-2.178,0-3.941-1.763-3.941-3.939v-19.707
		c0-2.176,1.764-3.945,3.941-3.945h9.611c2.176,0,3.939,1.769,3.939,3.945V486.061z"/>
	<path d="M314.169,159.573h-0.006c-0.656,0-1.402,0.089-1.865,0.547c-0.463,0.462-0.598,1.143-0.598,1.915v162.261v129.26
		c0,0.78,0.135,1.458,0.598,1.922c0.463,0.464,1.209,0.545,1.865,0.545h0.006c23.43-0.061,42.49-19.167,42.49-42.598v-89.129
		V202.172C356.659,178.747,337.599,159.636,314.169,159.573z"/>
	<path d="M195.79,486.061c0,2.176-1.763,3.939-3.939,3.939h-9.608c-2.179,0-3.945-1.763-3.945-3.939v-19.707
		c0-2.176,1.766-3.945,3.945-3.945h9.608c2.175,0,3.939,1.769,3.939,3.945V486.061z"/>
	<path d="M175.828,159.573h0.004c0.654,0,1.407,0.089,1.872,0.547c0.462,0.462,0.595,1.143,0.595,1.915v162.261v129.26
		c0,0.78-0.133,1.458-0.595,1.922c-0.465,0.464-1.218,0.545-1.872,0.545h-0.004c-23.431-0.061-42.487-19.167-42.487-42.598v-89.129
		V202.172C133.341,178.747,152.397,159.636,175.828,159.573z"/>
</g>
<g>
</g>
<g>
</g>
<g>
</g>
<g>
</g>
<g>
</g>
<g>
</g>
<g>
</g>
<g>
</g>
<g>
</g>
<g>
</g>
<g>
</g>
<g>
</g>
<g>
</g>
<g>
</g>
<g>
</g>
</svg>
